<svg xmlns="http://www.w3.org/2000/svg" width="320" height="320" viewBox="0 0 320 320">
  <rect width="320" height="320" fill="#2a2623"/>
  <g opacity="0.2" stroke="#fff5e6" stroke-width="2" fill="none" stroke-linecap="round" stroke-linejoin="round">
    <path d="M36 64h84v40a14 14 0 0 1-14 14H50a14 14 0 0 1-14-14V64z"/>
    <path d="M120 72h16a16 16 0 0 1 0 32h-12"/>
    <path d="M62 52c0-10 12-10 12-20"/>
    <path d="M86 52c0-10 12-10 12-20"/>

    <path d="M230 60c22 0 42 16 44 38-34 7-52-10-86-2 5-21 20-36 42-36z"/>
    <path d="M194 96c18-10 56-10 76 0"/>

    <rect x="30" y="188" width="120" height="80" rx="6"/>
    <line x1="48" y1="204" x2="134" y2="204"/>
    <line x1="48" y1="224" x2="134" y2="224"/>
    <line x1="48" y1="244" x2="134" y2="244"/>

    <circle cx="242" cy="214" r="18"/>
    <circle cx="270" cy="196" r="6"/>
    <circle cx="258" cy="188" r="6"/>
    <circle cx="228" cy="190" r="6"/>
    <circle cx="218" cy="202" r="6"/>
  </g>
</svg>
